HIERARCHY
ROOT Hips
{
  OFFSET 54.8606 84.4565 3.96137
  CHANNELS 6 Xposition Yposition Zposition Zrotation Xrotation Yrotation
  JOINT spine
  {
    OFFSET 0 5.95438 0.342407
    CHANNELS 3 Zrotation Xrotation Yrotation
    JOINT spine1
    {
      OFFSET 0 8.85602 0
      CHANNELS 3 Zrotation Xrotation Yrotation
      JOINT spine2
      {
        OFFSET 0 8.48567 0
        CHANNELS 3 Zrotation Xrotation Yrotation
        JOINT Neck
        {
          OFFSET 0 21.7863 1.0387
          CHANNELS 3 Zrotation Xrotation Yrotation
          JOINT Head
          {
            OFFSET 0 6.5822 0
            CHANNELS 3 Zrotation Xrotation Yrotation
            End Site
            {
              OFFSET 0 15.9326 -5.25436
            }
          }
        }
        JOINT RightShoulder
        {
          OFFSET -3.57307 9.16386 -0.497525
          CHANNELS 3 Zrotation Xrotation Yrotation
          JOINT RightArm
          {
            OFFSET 0 12.0192 0
            CHANNELS 3 Zrotation Xrotation Yrotation
            JOINT RightArmRoll
            {
              OFFSET 0 6.06755 0
              CHANNELS 3 Zrotation Xrotation Yrotation
              JOINT RightForeArm
              {
                OFFSET 0 17.6726 0
                CHANNELS 3 Zrotation Xrotation Yrotation
                JOINT RightForeArmRoll
                {
                  OFFSET 0 6.80872 0
                  CHANNELS 3 Zrotation Xrotation Yrotation
                  JOINT RightHand
                  {
                    OFFSET 0 13.6636 0
                    CHANNELS 3 Zrotation Xrotation Yrotation
                    End Site
                    {
                      OFFSET 0 0 0
                    }
                  }
                }
              }
            }
          }
        }
        JOINT LeftShoulder
        {
          OFFSET 3.57307 9.16386 -0.497525
          CHANNELS 3 Zrotation Xrotation Yrotation
          JOINT LeftArm
          {
            OFFSET 0 12.0192 0
            CHANNELS 3 Zrotation Xrotation Yrotation
            JOINT LeftArmRoll
            {
              OFFSET 0 6.06755 0
              CHANNELS 3 Zrotation Xrotation Yrotation
              JOINT LeftForeArm
              {
                OFFSET 0 17.6726 0
                CHANNELS 3 Zrotation Xrotation Yrotation
                JOINT LeftForeArmRoll
                {
                  OFFSET 0 6.80872 0
                  CHANNELS 3 Zrotation Xrotation Yrotation
                  JOINT LeftHand
                  {
                    OFFSET 0 13.6636 0
                    CHANNELS 3 Zrotation Xrotation Yrotation
                    End Site
                    {
                      OFFSET 0 0 0
                    }
                  }
                }
              }
            }
          }
        }
      }
    }
  }
  JOINT RightUpLeg
  {
    OFFSET -5.27774 -0.967797 -0.811858
    CHANNELS 3 Zrotation Xrotation Yrotation
    JOINT RightUpLegRoll
    {
      OFFSET 0 16.0214 0
      CHANNELS 3 Zrotation Xrotation Yrotation
      JOINT RightLeg
      {
        OFFSET 0 -19.8401 0
        CHANNELS 3 Zrotation Xrotation Yrotation
        JOINT RightLegRoll
        {
          OFFSET 0 19.905 0
          CHANNELS 3 Zrotation Xrotation Yrotation
          JOINT RightFoot
          {
            OFFSET 0 16.5675 0
            CHANNELS 3 Zrotation Xrotation Yrotation
            JOINT RightToeBase
            {
              OFFSET 0 13.8496 0
              CHANNELS 3 Zrotation Xrotation Yrotation
              End Site
              {
                OFFSET 0.00587034 6.70728 -0.773117
              }
            }
          }
        }
      }
    }
  }
  JOINT LeftUpLeg
  {
    OFFSET 5.27774 -0.967797 -0.811858
    CHANNELS 3 Zrotation Xrotation Yrotation
    JOINT LeftUpLegRoll
    {
      OFFSET 0 16.0215 0
      CHANNELS 3 Zrotation Xrotation Yrotation
      JOINT LeftLeg
      {
        OFFSET 0 19.84 0
        CHANNELS 3 Zrotation Xrotation Yrotation
        JOINT LeftLegRoll
        {
          OFFSET 0 20.089 0
          CHANNELS 3 Zrotation Xrotation Yrotation
          JOINT LeftFoot
          {
            OFFSET 0 16.3835 0
            CHANNELS 3 Zrotation Xrotation Yrotation
            JOINT LeftToeBase
            {
              OFFSET 0 13.8496 0
              CHANNELS 3 Zrotation Xrotation Yrotation
              End Site
              {
                OFFSET -0.0263083 6.70728 -0.773117
              }
            }
          }
        }
      }
    }
  }
}
MOTION
Frames: 8
Frame Time: 0.00208333
55.2328 84.505 3.46012 3.06956 -11.7003 3.00473 -0.386033 -0.677888 0.0359477 -0.775952 2.64558 0.117426 -0.778261 4.29057 0.137496 -12.3756 8.4308 0.619313 14.1094 8.42435 -3.03517 64.6043 2.15829 0.570729 116.81 51.9102 -36.2007 2.32909e-005 -3.28125e-006 6.05043e-006 -5.87404 60.887 0.951447 4.36715e-006 3.72216e-006 -2.99999 8.03007 -4.9514 0.697626 -70.6745 -7.45422 4.98789 -133.036 59.2547 53.2379 -4.77083e-015 2.22639e-014 -9.54166e-015 5.23848 54.4212 -0.258281 3.51365e-006 1.12833e-006 2.99999 -8.03009 -4.95139 -0.697628 174.836 -5.63464 6.36238 180 7.01516e-015 178.797 176.502 10.5707 -179.995 2.31005e-006 1.7212e-006 0.163393 -19.9197 69.4744 20.8448 8.13649 25.2327 -3.48773 179.129 -7.3282 -0.106164 4.54188e-006 -4.6773e-006 -1.20746 -2.80499 -7.05497 -0.00428235 3.87951e-006 -1.63168e-006 -0.0803035 18.6885 68.0814 -19.5713 -8.13649 25.2327 3.48774 
55.2334 84.5079 3.45752 3.06185 -11.7076 3.00194 -0.384485 -0.677808 0.0359786 -0.771287 2.64592 0.117242 -0.773591 4.29091 0.137089 -12.4364 8.45449 0.624486 14.163 8.37386 -3.04427 64.6044 2.15977 0.571498 116.412 51.8939 -35.7399 2.32909e-005 -3.28125e-006 6.05043e-006 -5.87737 60.9171 0.954892 4.36715e-006 3.72216e-006 -2.99999 8.03007 -4.9514 0.697626 -70.7158 -7.45696 4.99054 -132.668 59.3396 52.8321 -3.18055e-015 9.54166e-015 -3.97569e-015 5.23925 54.4249 -0.25896 3.51365e-006 1.12833e-006 2.99999 -8.03009 -4.95139 -0.697628 174.853 -5.65195 6.35205 180 7.01516e-015 178.797 176.509 10.5516 -179.996 2.31005e-006 1.7212e-006 0.163411 -19.9111 69.4654 20.8356 8.13649 25.2327 -3.48773 179.144 -7.3206 -0.118168 4.54188e-006 -4.6773e-006 -1.20747 -2.81078 -7.08206 -0.0060928 3.87951e-006 -1.63168e-006 -0.080296 18.7007 68.0958 -19.5844 -8.13649 25.2327 3.48774 
55.2385 84.5086 3.44738 3.05459 -11.7144 3.00003 -0.382972 -0.677727 0.0360089 -0.766755 2.64627 0.117064 -0.769054 4.29126 0.136691 -12.4964 8.47721 0.629073 14.2149 8.3233 -3.05361 64.6043 2.15932 0.571247 116.018 51.8753 -35.2833 2.32909e-005 -3.28125e-006 6.05043e-006 -5.88096 60.9493 0.958619 4.36715e-006 3.72216e-006 -2.99999 8.03007 -4.9514 0.697626 -70.7572 -7.45933 4.993 -132.304 59.4234 52.4314 3.18055e-015 1.27222e-014 7.95139e-015 5.23972 54.4252 -0.259322 3.51365e-006 1.12833e-006 2.99999 -8.03009 -4.95139 -0.697628 174.87 -5.66861 6.34212 180 7.01516e-015 178.797 176.516 10.5332 -179.997 2.31005e-006 1.7212e-006 0.163429 -19.9028 69.4568 20.8267 8.13649 25.2327 -3.48773 179.159 -7.31311 -0.129597 4.54188e-006 -4.6773e-006 -1.20749 -2.8163 -7.108 -0.00781083 3.87951e-006 -1.63168e-006 -0.0802886 18.7124 68.1096 -19.5969 -8.13649 25.2327 3.48774 
55.2351 84.5087 3.45241 3.04801 -11.7207 2.99945 -0.38154 -0.677639 0.0360383 -0.762488 2.64663 0.116899 -0.764784 4.29162 0.136312 -12.5545 8.49816 0.632718 14.2642 8.27367 -3.06327 64.6034 2.15622 0.569622 115.629 51.8546 -34.8336 2.32909e-005 -3.28125e-006 6.05043e-006 -5.88489 60.9841 0.962721 4.36715e-006 3.72216e-006 -2.99999 8.03007 -4.9514 0.697626 -70.7979 -7.46117 4.9952 -131.948 59.5062 52.0377 -1.59028e-015 0 -4.77083e-015 5.23986 54.4216 -0.259325 3.51365e-006 1.12833e-006 2.99999 -8.03009 -4.95139 -0.697628 174.885 -5.68417 6.3328 180 7.01516e-015 178.796 176.522 10.5158 -179.998 2.31005e-006 1.7212e-006 0.163446 -19.8952 69.4488 20.8186 8.13649 25.2327 -3.48773 179.173 -7.30581 -0.140131 4.54188e-006 -4.6773e-006 -1.20751 -2.82136 -7.13214 -0.00938323 3.87951e-006 -1.63168e-006 -0.0802811 18.7232 68.1224 -19.6085 -8.13649 25.2327 3.48774 
55.2085 84.511 3.46431 3.04235 -11.7262 3.00064 -0.380233 -0.67754 0.036066 -0.758621 2.647 0.116752 -0.760912 4.29199 0.135962 -12.6096 8.51655 0.635065 14.3099 8.22594 -3.0733 64.6015 2.14974 0.566273 115.249 51.8318 -34.3931 2.32909e-005 -3.28125e-006 6.05043e-006 -5.88925 61.0222 0.967291 4.36715e-006 3.72216e-006 -2.99999 8.03007 -4.9514 0.697626 -70.8373 -7.46234 4.99702 -131.599 59.588 51.6528 -6.36111e-015 0 7.95139e-016 5.23961 54.4138 -0.258927 3.51365e-006 1.12833e-006 2.99999 -8.03009 -4.95139 -0.697628 174.899 -5.69821 6.32431 180 7.01516e-015 178.796 176.528 10.5001 -179.999 2.31005e-006 1.7212e-006 0.163463 -19.8884 69.4416 20.8113 8.13649 25.2327 -3.48773 179.185 -7.2988 -0.149452 4.54188e-006 -4.6773e-006 -1.20753 -2.8258 -7.15384 -0.0107568 3.87951e-006 -1.63168e-006 -0.0802735 18.7329 68.1339 -19.6188 -8.13649 25.2327 3.48774 
55.2084 84.5103 3.47509 3.03783 -11.7307 3.00403 -0.3791 -0.677427 0.0360918 -0.755285 2.64736 0.116629 -0.757572 4.29235 0.135651 -12.6605 8.53159 0.635756 14.3512 8.18111 -3.08376 64.5981 2.13913 0.560844 114.878 51.8071 -33.9643 2.32909e-005 -3.28125e-006 6.05043e-006 -5.89412 61.064 0.972426 4.36715e-006 3.72216e-006 -2.99999 8.03007 -4.9514 0.697626 -70.8748 -7.46268 4.99837 -131.261 59.669 51.2785 -9.54166e-015 -3.18055e-015 -2.14687e-014 5.23894 54.4013 -0.258089 3.51365e-006 1.12833e-006 2.99999 -8.03009 -4.95139 -0.697628 174.912 -5.7103 6.31683 180 7.01516e-015 178.796 176.533 10.4864 -180 2.31005e-006 1.7212e-006 0.163479 -19.8827 69.4356 20.8052 8.13649 25.2327 -3.48773 179.195 -7.29216 -0.157241 4.54188e-006 -4.6773e-006 -1.20755 -2.82943 -7.17244 -0.0118783 3.87951e-006 -1.63168e-006 -0.0802659 18.7412 68.1436 -19.6276 -8.13649 25.2327 3.48774 
55.1963 84.5089 3.47132 3.03469 -11.734 3.01007 -0.378184 -0.677294 0.0361149 -0.752613 2.64771 0.116538 -0.754897 4.2927 0.135389 -12.7061 8.54248 0.634434 14.3871 8.14017 -3.09472 64.593 2.12367 0.552985 114.519 51.7806 -33.5495 2.32909e-005 -3.28125e-006 6.05043e-006 -5.89958 61.1103 0.978221 4.36715e-006 3.72216e-006 -2.99999 8.03007 -4.9514 0.697626 -70.9098 -7.46202 4.99915 -130.934 59.7493 50.9168 4.77083e-015 9.54166e-015 9.54166e-015 5.23781 54.3837 -0.256767 3.51365e-006 1.12833e-006 2.99999 -8.03009 -4.95139 -0.697628 174.922 -5.72002 6.31058 180 7.01516e-015 178.796 176.538 10.4752 180 2.31005e-006 1.7212e-006 0.163494 -19.8783 69.4309 20.8004 8.13649 25.2327 -3.48773 179.204 -7.286 -0.163178 4.54188e-006 -4.6773e-006 -1.20757 -2.83208 -7.18729 -0.0126944 3.87951e-006 -1.63168e-006 -0.0802582 18.7477 68.1512 -19.6345 -8.13649 25.2327 3.48774 
55.2008 84.5075 3.46167 3.03316 -11.7359 3.01919 -0.377533 -0.677137 0.036135 -0.750737 2.64804 0.116482 -0.75302 4.29303 0.135186 -12.7452 8.54842 0.630744 14.4166 8.10411 -3.10623 64.5856 2.10261 0.542342 114.173 51.7526 -33.1512 2.32909e-005 -3.28125e-006 6.05043e-006 -5.90574 61.1617 0.984776 4.36715e-006 3.72216e-006 -2.99999 8.03007 -4.9514 0.697626 -70.9415 -7.46022 4.99926 -130.621 59.8289 50.5696 -1.59028e-015 -3.18055e-015 -4.77083e-015 5.23617 54.3606 -0.254923 3.51365e-006 1.12833e-006 2.99999 -8.03009 -4.95139 -0.697628 174.929 -5.72693 6.30575 180 7.01516e-015 178.796 176.541 10.467 179.999 2.31005e-006 1.7212e-006 0.163509 -19.8753 69.4277 20.7972 8.13649 25.2327 -3.48773 179.209 -7.28038 -0.166947 4.54188e-006 -4.6773e-006 -1.20759 -2.83357 -7.19775 -0.013152 3.87951e-006 -1.63168e-006 -0.0802505 18.7521 68.1563 -19.6392 -8.13649 25.2327 3.48774 
